<svg xmlns="http://www.w3.org/2000/svg" viewBox="0 0 400 800" width="400" height="800">
  <!-- Cuerpo -->
  <rect x="120" y="200" width="160" height="400" fill="#E6E6E6" />

  <!-- Piernas -->
  <rect x="160" y="600" width="80" height="160" fill="#E6E6E6" />

  <!-- Brazos -->
  <rect x="60" y="260" width="280" height="40" fill="#E6E6E6" />

  <!-- Cabeza -->
  <circle cx="200" cy="120" r="80" fill="#F5F5F5" stroke="#000000" stroke-width="3" />

  <!-- Ojos -->
  <circle cx="160" cy="100" r="10" fill="#000000" />
  <circle cx="240" cy="100" r="10" fill="#000000" />

  <!-- Cejas -->
  <path d="M140,80 Q160,60 180,80" fill="none" stroke="#000000" stroke-width="3" />
  <path d="M220,80 Q240,60 260,80" fill="none" stroke="#000000" stroke-width="3" />

  <!-- Nariz -->
  <path d="M200,120 L190,160 L210,160 Z" fill="#F5F5F5" stroke="#000000" stroke-width="3" />

  <!-- Boca -->
  <path d="M160,160 Q200,200 240,160" fill="none" stroke="#000000" stroke-width="3" />

  <!-- Gafas -->
  <path d="M120,100 L180,100 L220,100 L280,100" fill="none" stroke="#000000" stroke-width="3" />
  <path d="M180,90 L180,110 L220,110 L220,90" fill="none" stroke="#000000" stroke-width="3" />

  <!-- Cabello -->
  <circle cx="200" cy="120" r="70" fill="none" stroke="#000000" stroke-width="3" />
  <line x1="140" y1="50" x2="260" y2="50" stroke="#000000" stroke-width="3" />
  <line x1="160" y1="20" x2="240" y2="20" stroke="#000000" stroke-width="3" />
  <line x1="180" y1="0" x2="220" y2="0" stroke="#000000" stroke-width="3" />

  <!-- Camisa -->
  <rect x="140" y="320" width="120" height="200" fill="#2B7DE9" />

  <!-- Pantalón -->
  <rect x="140" y="520" width="120" height="160" fill="#3F3F3F" />

  <!-- Zapatos -->
  <rect x="140" y="680" width="40" height="40" fill="#000000" />
  <rect x="220" y="680" width="40" height="40" fill="#000000" />

  <!-- Manos -->
  <circle cx="80" cy="300" r="25" fill="#E6E6E6" stroke="#000000" stroke-width="3" />
  <circle cx="320" cy="300" r="25" fill="#E6E6E6" stroke="#000000" stroke-width="3" />

  <!-- Detalle de las gafas -->
  <circle cx="160" cy="100" r="5" fill="#000000" />
  <circle cx="240" cy="100" r="5" fill="#000000" />

  <!-- Detalle de la camisa -->
  <rect x="160" y="360" width="80" height="40" fill="#F5F5F5" />
  <rect x="160" y="420" width="80" height="40" fill="#F5F5F5" />
  <rect x="160" y="480" width="80" height="40" fill="#F5F5F5" />

  <!-- Detalle del pantalón -->
  <rect x="160" y="560" width="80" height="40" fill="#F5F5F5" />
  <rect x="160" y="620" width="80" height="40" fill="#F5F5F5" />

  <!-- Detalle de los zapatos -->
  <rect x="140" y="720" width="40" height="20" fill="#F5F5F5" />
  <rect x="220" y="720" width="40" height="20" fill="#F5F5F5" />
</svg>
