<svg version="1.0" xmlns="http://www.w3.org/2000/svg"
 width="512.000000pt" height="512.000000pt" viewBox="0 0 512.000000 512.000000"
 preserveAspectRatio="xMidYMid meet">
<g id="hombre" transform="translate(0.000000,512.000000) scale(0.100000,-0.100000)"
fill="#000000" stroke="none">
<path d="M1298 5093 c-117 -126 -285 -482 -333 -708 -60 -283 -25 -701 85
-1019 l20 -60 -39 -40 c-114 -117 -128 -355 -33 -543 57 -110 170 -208 272
-234 47 -12 51 -16 61 -53 20 -83 82 -254 120 -332 83 -175 287 -340 547 -445
l84 -34 -7 -65 c-13 -142 -15 -147 -39 -143 -45 9 -104 -18 -216 -102 -63 -46
-130 -97 -147 -113 -31 -27 -41 -30 -172 -41 -179 -15 -288 -34 -404 -71 -229
-74 -383 -225 -456 -450 -30 -90 -54 -245 -46 -294 14 -81 68 -155 142 -194
72 -38 551 -103 998 -134 247 -18 1406 -18 1650 0 372 27 648 59 876 102 139
27 187 56 235 142 25 47 28 62 28 133 -2 109 -36 241 -90 354 -37 75 -60 108
-118 165 -88 87 -157 129 -284 172 -117 40 -227 60 -412 75 -132 11 -141 13
-172 40 -18 16 -85 68 -148 114 -113 84 -171 111 -216 102 -21 -4 -23 0 -29
52 -3 31 -8 74 -11 96 -6 53 6 66 91 99 239 93 453 269 534 440 38 78 100 249
120 332 10 37 14 41 61 53 102 26 215 124 272 234 53 104 74 226 58 339 -13
91 -41 153 -91 204 l-41 41 26 82 c59 186 86 364 86 566 0 356 -88 601 -289
808 -153 158 -291 228 -565 284 -119 24 -152 27 -361 27 -244 1 -285 -4 -501
-54 -198 -47 -323 -62 -504 -61 -249 1 -422 45 -499 127 -27 28 -40 34 -75 34
-33 0 -48 -6 -68 -27z m1872 -208 c300 -42 462 -120 613 -295 62 -71 141 -231
168 -340 30 -121 37 -366 15 -515 -18 -123 -43 -220 -45 -173 -2 50 -50 262
-80 350 -16 47 -50 126 -75 175 -110 213 -258 326 -473 361 -82 13 -113 14
-212 4 -64 -7 -163 -24 -221 -38 -276 -65 -319 -67 -530 -16 -342 83 -507 81
-686 -8 -173 -85 -295 -252 -378 -517 -29 -93 -66 -267 -66 -309 0 -46 -17
-15 -34 65 -48 214 -61 481 -32 648 32 179 94 356 178 508 66 119 57 113 135
77 146 -67 392 -100 629 -82 159 11 232 22 394 60 114 26 206 44 285 53 82 10
316 5 415 -8z m-1097 -620 c54 -8 144 -26 200 -39 258 -63 315 -62 612 7 61
14 151 31 202 38 297 38 481 -104 593 -456 30 -96 80 -349 70 -359 -10 -10
-163 75 -208 115 -145 127 -370 201 -566 185 -133 -11 -176 -44 -161 -123 10
-55 40 -67 149 -58 51 3 115 3 142 -1 l49 -7 -73 -13 c-117 -20 -226 -69 -325
-147 -36 -28 -40 -29 -82 -18 -56 14 -174 14 -229 0 -43 -11 -45 -10 -105 35
-103 75 -250 134 -342 137 l-34 1 35 9 c19 5 82 7 140 4 58 -4 113 -3 123 1
28 10 50 61 42 101 -9 49 -49 70 -150 78 -205 17 -430 -55 -577 -184 -45 -40
-198 -125 -207 -115 -8 8 30 226 56 314 73 253 169 397 310 462 103 48 182 56
336 33z m1416 -896 c61 -19 164 -77 214 -120 l47 -41 0 -97 c0 -244 -94 -380
-303 -437 -28 -8 -103 -17 -164 -21 -137 -7 -213 10 -303 68 -113 73 -154 171
-154 371 l-1 127 34 35 c41 42 133 89 221 111 125 33 314 34 409 4z m-1444 -4
c86 -24 156 -60 206 -104 l44 -39 0 -123 c-1 -202 -44 -306 -156 -379 -89 -57
-165 -74 -302 -67 -61 4 -136 13 -164 21 -209 57 -303 193 -303 437 l0 97 45
40 c55 49 152 101 230 124 77 23 307 19 400 -7z m581 -153 c7 -4 13 -62 17
-147 4 -112 10 -156 31 -221 56 -175 161 -280 346 -346 80 -29 285 -36 404
-13 49 9 116 27 148 40 l58 24 -6 -27 c-15 -66 -88 -273 -119 -337 -35 -72
-117 -163 -202 -224 -69 -50 -202 -117 -308 -156 -247 -92 -450 -111 -660 -63
-309 72 -572 219 -686 384 -43 63 -122 268 -153 396 l-6 27 58 -24 c153 -62
427 -73 563 -23 187 69 295 187 345 373 8 33 18 121 21 195 4 82 10 138 17
142 6 4 36 8 66 8 30 0 60 -4 66 -8z m-1434 -164 c4 -79 12 -124 36 -194 17
-50 34 -108 38 -129 l7 -38 -31 21 c-40 29 -89 104 -107 166 -17 58 -20 172
-4 213 11 30 37 63 49 63 4 0 10 -46 12 -102z m2782 69 c25 -34 34 -147 17
-223 -14 -62 -76 -162 -116 -188 l-28 -18 7 38 c4 21 21 78 38 128 24 70 32
115 36 194 5 109 10 117 46 69z m-1604 -1568 c91 -18 308 -15 404 5 44 8 81
15 82 13 2 -1 8 -41 14 -87 5 -47 17 -107 26 -135 l15 -50 -58 -54 c-69 -65
-202 -165 -255 -192 -38 -19 -38 -19 -78 1 -52 26 -225 158 -272 207 l-37 38
19 80 c11 44 22 106 25 138 6 54 8 58 28 54 12 -3 51 -11 87 -18z m-293 -380
c66 -69 184 -169 258 -219 28 -18 52 -34 53 -36 2 -1 -20 -33 -48 -70 -29 -38
-62 -87 -73 -111 l-21 -43 -55 31 c-119 67 -262 192 -359 313 l-31 39 77 55
c42 31 90 66 105 79 16 13 30 23 32 23 2 0 30 -28 62 -61z m1141 -24 l102 -78
-33 -41 c-54 -69 -165 -174 -240 -227 -62 -44 -157 -99 -171 -99 -2 0 -16 21
-31 48 -15 26 -48 73 -72 105 -25 32 -44 59 -42 61 2 1 27 18 54 36 74 50 203
160 260 223 28 30 55 54 60 52 6 -2 57 -38 113 -80z m-1543 -212 c134 -188
448 -423 567 -423 84 0 132 30 173 110 55 107 54 110 55 -177 l0 -263 -182 0
c-180 0 -593 16 -634 25 -20 4 -22 12 -25 91 -4 79 -6 87 -32 110 -38 32 -90
32 -122 -1 -22 -22 -25 -32 -25 -104 l0 -81 -42 5 c-277 33 -491 65 -570 86
-61 16 -71 47 -53 155 38 216 144 359 322 434 78 33 235 67 368 79 166 15 155
18 200 -46z m1955 46 c153 -14 300 -44 383 -79 177 -74 284 -218 321 -433 17
-94 12 -122 -25 -146 -23 -14 -311 -64 -464 -80 -55 -6 -117 -13 -137 -16
l-38 -5 0 80 c0 73 -3 83 -25 105 -32 33 -84 33 -121 2 -25 -22 -28 -31 -32
-110 l-4 -87 -32 -5 c-57 -9 -459 -25 -634 -25 l-172 0 0 268 c0 185 3 262 11
252 5 -8 23 -41 39 -72 40 -77 86 -111 159 -116 48 -3 67 0 112 23 184 93 399
277 493 422 24 37 15 36 166 22z"/>
<path d="M2427 2639 c-11 -6 -25 -26 -33 -45 -12 -29 -12 -39 0 -68 8 -19 23
-39 34 -45 12 -6 71 -11 132 -11 61 0 120 5 132 11 11 6 26 26 34 45 12 29 12
39 0 68 -8 19 -23 39 -34 45 -27 14 -241 14 -265 0z"/>
<path d="M2245 2365 c-34 -33 -34 -93 0 -127 33 -34 117 -78 179 -94 65 -18
206 -18 271 0 139 37 232 118 209 182 -26 72 -90 83 -179 29 -102 -61 -221
-61 -329 -1 -76 43 -117 46 -151 11z"/>
<path d="M2413 2028 c-27 -30 -34 -63 -21 -99 16 -46 53 -59 168 -59 115 0
152 13 168 59 13 36 6 69 -21 99 -19 21 -29 22 -147 22 -118 0 -128 -1 -147
-22z"/>
</g>
</svg>
